<?xml version="1.0" encoding="UTF-8"?>
<!DOCTYPE svg PUBLIC "-//W3C//DTD SVG 1.1//EN" "http://www.w3.org/Graphics/SVG/1.1/DTD/svg11.dtd">
<!-- Creator: CorelDRAW 2021 (64-Bit) -->
<svg xmlns="http://www.w3.org/2000/svg" xml:space="preserve" width="210mm" height="297mm" version="1.1" style="shape-rendering:geometricPrecision; text-rendering:geometricPrecision; image-rendering:optimizeQuality; fill-rule:evenodd; clip-rule:evenodd"
viewBox="0 0 21000 29700"
 xmlns:xlink="http://www.w3.org/1999/xlink"
 xmlns:xodm="http://www.corel.com/coreldraw/odm/2003">
 <defs>
  <style type="text/css">
   <![CDATA[
    .fil1 {fill:#0B4D8C}
    .fil0 {fill:#9DB8D0}
   ]]>
  </style>
 </defs>
 <g id="Layer_x0020_1">
  <metadata id="CorelCorpID_0Corel-Layer"/>
  <g id="_1875385147424">
   <path class="fil0" d="M10442.52 1843.65c2100.99,0 3804.2,1681.53 3804.2,3755.79 0,2074.24 -1703.21,3755.77 -3804.2,3755.77 -2100.99,0 -3804.21,-1681.53 -3804.21,-3755.77 0,-2074.26 1703.22,-3755.79 3804.21,-3755.79z"/>
   <path class="fil1" d="M17145.89 10182.7c724.33,-2561.65 263.54,-4604.78 -1008.39,-6293.17 -848.17,5543.88 -3034.34,6639.21 -7992.21,8602.93 -4841.36,1917.54 -7266.1,5813.1 -4527.44,10745.37 2488.3,4481.29 8648.36,4118.43 11701.51,1244.22 3327.25,-3132.36 2248.84,-8568.94 -247.36,-10133.97 -1064.72,681.35 -2509.83,1325.43 -3995.63,1965.46 4509.14,2204.67 1877.81,6970.1 -1388.99,6527.6 -2879.09,-390 -3655.75,-2299.29 -3006.21,-4580.11 -537.59,324.54 -1098.48,989.65 -1674.39,1875.27 785.56,-2413.37 2880.53,-3568.3 5268.68,-4431.11 805.08,-262.88 3094.24,-1247.01 4493.68,-2250.17 1139.19,-816.57 1910.96,-2132.26 2376.75,-3272.32z"/>
  </g>
 </g>
</svg>
