<svg version="1.2" xmlns="http://www.w3.org/2000/svg" viewBox="0 0 500 352" width="500" height="352">
	<title>logo-svg</title>
	<style>
		.s0 { fill: #9db8d0 } 
		.s1 { fill: #0b4d8c } 
	</style>
	<g id="Layer_x0020_1">
		<path id="Layer" class="s0" d="m254.5 93.2c-19.7 0-35.6-15.7-35.6-35.1 0-19.4 15.9-35.1 35.6-35.1 19.6 0 35.5 15.7 35.5 35.1 0 19.4-15.9 35.1-35.5 35.1z"/>
		<path id="Layer" fill-rule="evenodd" class="s1" d="m317.1 100.9c6.8-23.9 2.5-43-9.4-58.8-7.9 51.8-28.4 62.1-74.7 80.4-45.2 17.9-67.9 54.3-42.3 100.4 23.3 41.9 80.8 38.5 109.3 11.6 31.1-29.2 21.1-80-2.3-94.7-9.9 6.4-23.4 12.4-37.3 18.4 42.1 20.6 17.5 65.1-13 61-26.9-3.7-34.1-21.5-28.1-42.8-5 3-10.2 9.2-15.6 17.5 7.3-22.5 26.9-33.3 49.2-41.4 7.5-2.4 28.9-11.6 42-21 10.7-7.6 17.9-19.9 22.2-30.6z"/>
		<g id="Layer">
			<path id="E N F I N I T Y" class="s1" aria-label="E N F I N I T Y"  d="m58 342h-41.1v-49.8h39.6v8h-29v12.6h26.9v8h-26.9v13.1h30.5zm71.1 0h-12.3l-22-38.3q0.7 5.6 0.7 8.9v29.4h-9.4v-49.8h12l22.3 38.7q-0.6-5.3-0.6-9.7v-29h9.3zm67.4-41.8h-26.6v15.5h25.7v8h-25.7v18.3h-10.6v-49.8h37.2zm38.4 41.7h-10.5v-49.8h10.5zm73.2 0h-12.3l-22-38.4q0.6 5.6 0.6 9v29.4h-9.3v-49.8h12l22.3 38.7q-0.6-5.4-0.6-9.8v-28.9h9.3zm40.7 0h-10.5v-49.8h10.5zm69.2-41.8h-16.3v41.8h-10.5v-41.8h-16.3v-8.1h43.1zm67.5-8l-18 29.3v20.5h-10.5v-20.5l-17.9-29.3h11l12.1 21 12.2-21z"/>
		</g>
	</g>
</svg>